# xmcd
#
# Track frame offsets:
#	150
#	9564
#	25095
#	37567
#	47738
#	59740
#	71035
#	83037
#	91626
#	100569
#	111394
#	124570
#	139631
#	149280
#	161752
#	173047
#	183048
#	192932
#	208111
#	220113
#
# Disc length: 3102 seconds
#
# Revision: 0
# Processed by: cddbd v1.5.2PL0 Copyright (c) Steve Scherf et al.
# Submitted via: EZCDAudioConverter 2.3.5.1
#
DISCID=080c1c14
DTITLE=금잔디 - CD1
DYEAR=2011
DGENRE=
TTITLE0=일편단심
TTITLE1=사랑아 가자
TTITLE2=장미같은 여자
TTITLE3=한방이야
TTITLE4=꽃비 여인
TTITLE5=그리움
TTITLE6=따따블
TTITLE7=사랑은 돈보다 좋다
TTITLE8=로망
TTITLE9=고장난 벽시계
TTITLE10=너도 역시 여자 였구나
TTITLE11=뿐이고
TTITLE12=사랑이 깊으면
TTITLE13=고추
TTITLE14=빙빙빙
TTITLE15=꽃보다 당신
TTITLE16=검정 고무신
TTITLE17=잠자는 공주
TTITLE18=벤취
TTITLE19=사랑의 배터리
EXTD=
EXTT0=
EXTT1=
EXTT2=
EXTT3=
EXTT4=
EXTT5=
EXTT6=
EXTT7=
EXTT8=
EXTT9=
EXTT10=
EXTT11=
EXTT12=
EXTT13=
EXTT14=
EXTT15=
EXTT16=
EXTT17=
EXTT18=
EXTT19=
PLAYORDER=
